<svg width="142" height="206" viewBox="0 0 142 206" fill="none" xmlns="http://www.w3.org/2000/svg">
<path d="M8.87196 197.243L0.249773 197.243L0.249773 186.646L0.249772 175.799L0.249771 154.105L0.24977 132.412L0.249769 110.718L0.249768 89.0241L0.249767 67.3303L0.249766 45.6366L0.249766 34.7897L0.249765 24.1926L8.87195 24.1926L17.7439 24.1926L35.4878 24.1926L70.9757 24.1926L106.463 24.1926L124.207 24.1926L133.079 24.1926L141.702 24.1926L141.702 34.7897L141.702 45.6366L141.702 67.3303L141.702 89.0241L141.702 110.718L141.702 132.412L141.702 154.105L141.702 175.799L141.702 186.646L141.702 197.243L133.079 197.243L124.207 197.243L115.335 197.243L115.235 197.243L115.163 197.313L106.363 205.75L88.7196 205.75L70.9757 205.75L53.2317 205.75L35.4878 205.75L17.8443 205.75L9.04483 197.313L8.97236 197.243L8.87196 197.243Z" fill="#3F518C" stroke="black" stroke-width="0.499547"/>
<path d="M3.89626 191.288L3.89626 143.174L11.9041 143.174L11.9041 191.288L3.89626 191.288Z" fill="#333333" stroke="black" stroke-width="0.499547"/>
<path d="M5.71852 189.465L5.71852 185.103L10.0803 185.103L10.0803 189.465L5.71852 189.465Z" fill="#010F0F" stroke="black" stroke-width="0.499547"/>
<path d="M5.71852 182.781L5.71852 178.419L10.0803 178.419L10.0803 182.781L5.71852 182.781Z" fill="#010F0F" stroke="black" stroke-width="0.499547"/>
<path d="M5.71852 176.096L5.71852 171.735L10.0803 171.735L10.0803 176.096L5.71852 176.096Z" fill="#010F0F" stroke="black" stroke-width="0.499547"/>
<path d="M5.71852 169.411L5.71852 165.049L10.0803 165.049L10.0803 169.411L5.71852 169.411Z" fill="#010F0F" stroke="black" stroke-width="0.499547"/>
<path d="M5.71852 162.727L5.71852 158.365L10.0803 158.365L10.0803 162.727L5.71852 162.727Z" fill="#010F0F" stroke="black" stroke-width="0.499547"/>
<path d="M5.71852 156.043L5.71852 151.681L10.0803 151.681L10.0803 156.043L5.71852 156.043Z" fill="#010F0F" stroke="black" stroke-width="0.499547"/>
<path d="M5.71852 149.36L5.71852 144.998L10.0803 144.998L10.0803 149.36L5.71852 149.36Z" fill="#010F0F" stroke="black" stroke-width="0.499547"/>
<path d="M3.89626 134.168L3.89625 66.001L11.9041 66.001L11.9041 134.168L3.89626 134.168Z" fill="#333333" stroke="black" stroke-width="0.499547"/>
<path d="M5.71852 132.345L5.71852 127.983L10.0803 127.983L10.0803 132.345L5.71852 132.345Z" fill="#010F0F" stroke="black" stroke-width="0.499547"/>
<path d="M5.71852 125.66L5.71852 121.298L10.0803 121.298L10.0803 125.66L5.71852 125.66Z" fill="#010F0F" stroke="black" stroke-width="0.499547"/>
<path d="M5.71852 118.975L5.71852 114.613L10.0803 114.613L10.0803 118.975L5.71852 118.975Z" fill="#010F0F" stroke="black" stroke-width="0.499547"/>
<path d="M5.71852 112.291L5.71852 107.929L10.0803 107.929L10.0803 112.291L5.71852 112.291Z" fill="#010F0F" stroke="black" stroke-width="0.499547"/>
<path d="M5.71852 105.607L5.71852 101.245L10.0803 101.245L10.0803 105.607L5.71852 105.607Z" fill="#010F0F" stroke="black" stroke-width="0.499547"/>
<path d="M5.71852 98.9227L5.71852 94.5609L10.0803 94.5609L10.0803 98.9227L5.71852 98.9227Z" fill="#010F0F" stroke="black" stroke-width="0.499547"/>
<path d="M5.71852 92.2379L5.71852 87.8761L10.0803 87.8761L10.0803 92.2379L5.71852 92.2379Z" fill="#010F0F" stroke="black" stroke-width="0.499547"/>
<path d="M5.71852 85.5539L5.71852 81.1921L10.0803 81.1921L10.0803 85.5539L5.71852 85.5539Z" fill="#010F0F" stroke="black" stroke-width="0.499547"/>
<path d="M5.71852 78.8699L5.71852 74.5081L10.0803 74.5081L10.0803 78.8699L5.71852 78.8699Z" fill="#010F0F" stroke="black" stroke-width="0.499547"/>
<path d="M5.71852 72.1844L5.71852 67.8226L10.0803 67.8226L10.0803 72.1844L5.71852 72.1844Z" fill="#010F0F" stroke="black" stroke-width="0.499547"/>
<path d="M130.049 191.288L130.049 149.858L138.056 149.858L138.056 191.288L130.049 191.288Z" fill="#333333" stroke="black" stroke-width="0.499547"/>
<path d="M131.871 189.465L131.871 185.103L136.233 185.103L136.233 189.465L131.871 189.465Z" fill="#333333" stroke="black" stroke-width="0.499547"/>
<path d="M131.871 182.781L131.871 178.419L136.233 178.419L136.233 182.781L131.871 182.781Z" fill="#333333" stroke="black" stroke-width="0.499547"/>
<path d="M131.871 176.096L131.871 171.734L136.233 171.734L136.233 176.096L131.871 176.096Z" fill="#333333" stroke="black" stroke-width="0.499547"/>
<path d="M131.871 169.41L131.871 165.049L136.233 165.049L136.233 169.41L131.871 169.41Z" fill="#333333" stroke="black" stroke-width="0.499547"/>
<path d="M131.871 162.726L131.871 158.365L136.233 158.365L136.233 162.726L131.871 162.726Z" fill="#333333" stroke="black" stroke-width="0.499547"/>
<path d="M131.871 156.042L131.871 151.681L136.233 151.681L136.233 156.042L131.871 156.042Z" fill="#333333" stroke="black" stroke-width="0.499547"/>
<path d="M130.049 140.852L130.049 86.0537L138.056 86.0537L138.056 140.852L130.049 140.852Z" fill="#333333" stroke="black" stroke-width="0.499547"/>
<path d="M131.871 139.029L131.871 134.667L136.233 134.667L136.233 139.029L131.871 139.029Z" fill="#010F0F" stroke="black" stroke-width="0.499547"/>
<path d="M131.871 132.345L131.871 127.983L136.233 127.983L136.233 132.345L131.871 132.345Z" fill="#010F0F" stroke="black" stroke-width="0.499547"/>
<path d="M131.871 125.66L131.871 121.298L136.233 121.298L136.233 125.66L131.871 125.66Z" fill="#010F0F" stroke="black" stroke-width="0.499547"/>
<path d="M131.871 118.976L131.871 114.614L136.233 114.614L136.233 118.976L131.871 118.976Z" fill="#010F0F" stroke="black" stroke-width="0.499547"/>
<path d="M131.871 112.292L131.871 107.93L136.233 107.93L136.233 112.292L131.871 112.292Z" fill="#010F0F" stroke="black" stroke-width="0.499547"/>
<path d="M131.871 105.607L131.871 101.245L136.233 101.245L136.233 105.607L131.871 105.607Z" fill="#010F0F" stroke="black" stroke-width="0.499547"/>
<path d="M131.871 98.9227L131.871 94.5609L136.233 94.5609L136.233 98.9227L131.871 98.9227Z" fill="#010F0F" stroke="black" stroke-width="0.499547"/>
<path d="M131.871 92.2379L131.871 87.8761L136.233 87.8761L136.233 92.2379L131.871 92.2379Z" fill="#010F0F" stroke="black" stroke-width="0.499547"/>
<path d="M32.0916 191.288L32.0916 87.8764L47.1483 87.8764L47.1483 191.288L32.0916 191.288Z" fill="#333333" stroke="black" stroke-width="0.499547"/>
<path d="M119.954 50.3095C119.018 50.3095 118.26 49.5507 118.26 48.6147L118.26 31.843C118.26 30.9071 119.018 30.1483 119.954 30.1483L136.726 30.1483C137.662 30.1483 138.421 30.9071 138.421 31.843L138.421 48.6147C138.421 49.5507 137.662 50.3095 136.726 50.3095L119.954 50.3095Z" fill="#D9D9D9" stroke="black" stroke-width="0.499547"/>
<path d="M21.2692 188.87C24.353 188.87 26.853 191.37 26.853 194.454C26.853 197.538 24.353 200.038 21.2692 200.038C18.1853 200.038 15.6853 197.538 15.6853 194.454C15.6853 191.37 18.1853 188.87 21.2692 188.87Z" fill="#D9D9D9" stroke="black" stroke-width="0.499547"/>
<path d="M128.339 34.6449C131.423 34.6449 133.923 37.1449 133.923 40.2288C133.923 43.3127 131.423 45.8126 128.339 45.8126C125.256 45.8126 122.756 43.3127 122.756 40.2288C122.756 37.1449 125.256 34.6449 128.339 34.6449Z" fill="#832827" stroke="black" stroke-width="0.499547"/>
<path d="M7.90016 45.3383C10.1115 45.3383 11.9041 47.1309 11.9041 49.3422C11.9041 51.5535 10.1115 53.3461 7.90016 53.3461C5.68887 53.3461 3.89626 51.5535 3.89626 49.3422C3.89626 47.1309 5.68887 45.3383 7.90016 45.3383Z" fill="#D9D9D9" stroke="black" stroke-width="0.499547"/>
<path d="M101.601 188.87C104.685 188.87 107.185 191.37 107.185 194.454C107.185 197.538 104.685 200.038 101.601 200.038C98.5173 200.038 96.0174 197.538 96.0174 194.454C96.0174 191.37 98.5173 188.87 101.601 188.87Z" fill="#D9D9D9" stroke="black" stroke-width="0.499547"/>
<path opacity="0.8" fill-rule="evenodd" clip-rule="evenodd" d="M28.4391 151.432L28.4391 187.284L27.4668 187.284L27.4668 151.432L28.4391 151.432Z" fill="#D9D9D9" stroke="black" stroke-width="0.499547"/>
<path opacity="0.8" fill-rule="evenodd" clip-rule="evenodd" d="M28.4391 100.996L28.4391 134.418L27.4668 134.418L27.4668 100.996L28.4391 100.996Z" fill="#D9D9D9" stroke="black" stroke-width="0.499547"/>
<path opacity="0.8" fill-rule="evenodd" clip-rule="evenodd" d="M119.955 100.995L119.955 191.538L118.982 191.538L118.982 100.995L119.955 100.995Z" fill="#D9D9D9" stroke="black" stroke-width="0.499547"/>
<path d="M26.3358 125.033L26.5554 125.152C26.641 124.995 26.6778 124.814 26.6778 124.622L26.6778 123.785L26.6778 123.535L26.428 123.535L24.3067 123.535L24.0569 123.535L24.0569 123.785L24.0569 124.234L24.0569 124.483L24.3067 124.483L24.7447 124.483L24.7447 124.611C24.7447 124.804 24.7803 124.985 24.8634 125.143L25.0846 125.027M26.3358 125.033L26.5559 125.151C26.4732 125.306 26.3547 125.428 26.2021 125.511L26.0821 125.292M26.3358 125.033C26.2751 125.147 26.1905 125.233 26.0821 125.292M26.3358 125.033C26.3973 124.92 26.428 124.783 26.428 124.622L26.428 124.035L24.9945 124.483L24.9945 124.611C24.9945 124.774 25.0245 124.913 25.0846 125.027M26.0821 125.292L26.2037 125.51C26.17 125.529 26.1353 125.546 26.0999 125.56C26.2895 125.667 26.4405 125.813 26.5459 125.999C26.6547 126.19 26.7068 126.402 26.7068 126.63C26.7068 126.856 26.6546 127.068 26.5458 127.259C26.4935 127.351 26.4299 127.434 26.3559 127.507L26.3593 127.506L26.6778 127.415L26.6778 127.746L26.6778 128.236L26.6778 128.433L26.4859 128.479L25.9468 128.607L26.4915 128.751L26.6778 128.8L26.6778 128.992L26.6778 129.412L26.6778 129.605L26.4912 129.653L25.9449 129.796L26.4858 129.925L26.6778 129.97L26.6778 130.168L26.6778 130.648L26.6778 130.658L26.6778 130.898L26.6778 130.989L26.6778 132.327L26.6778 132.434L26.6778 132.577L26.6778 132.684L26.6778 133.521C26.6778 133.71 26.644 133.887 26.5649 134.044L26.3421 133.931M26.0821 125.292C25.9743 125.352 25.8501 125.382 25.7092 125.382C25.5683 125.382 25.444 125.352 25.3363 125.291C25.2286 125.231 25.1447 125.142 25.0846 125.027M26.3421 133.931L26.5657 134.042C26.4884 134.198 26.3744 134.322 26.2243 134.408C26.077 134.493 25.911 134.531 25.7351 134.531C25.5577 134.531 25.3903 134.492 25.2432 134.404L25.2426 134.404C25.1671 134.358 25.1014 134.302 25.0456 134.238L24.4264 134.576L24.0569 134.778L24.0569 134.357L24.0569 133.861L24.0569 133.712L24.189 133.641L24.674 133.382L24.3067 133.382L24.0569 133.382L24.0569 133.132L24.0569 132.684L24.0569 132.581L24.0569 132.434L24.0569 132.331L24.0569 130.898L24.0569 130.648L24.3067 130.648L25.4861 130.648L24.238 130.291L24.0569 130.239L24.0569 130.051L24.0569 129.614L24.0569 129.426L24.2369 129.374L24.8279 129.202L24.237 129.03L24.0569 128.978L24.0569 128.79L24.0569 128.353L24.0569 128.165L24.238 128.113L25.129 127.858C24.9587 127.836 24.8006 127.788 24.6582 127.711C24.4575 127.604 24.2983 127.453 24.188 127.259L24.1878 127.258C24.0798 127.068 24.0279 126.856 24.0279 126.63C24.0279 126.402 24.0801 126.189 24.1893 125.998C24.2997 125.805 24.4593 125.654 24.66 125.547C24.7861 125.479 24.9244 125.434 25.0726 125.41C24.987 125.336 24.9171 125.246 24.8631 125.143L25.0846 125.027M26.3421 133.931C26.2854 134.045 26.205 134.131 26.1007 134.191L26.428 132.934L26.428 133.521C26.428 133.681 26.3994 133.818 26.3421 133.931ZM25.6037 124.483L25.6037 124.234L25.8116 124.234L25.8116 124.483M25.6037 124.483L25.8116 124.483M25.6037 124.483L25.6037 124.538C25.6037 124.597 25.6139 124.625 25.6189 124.634M25.6037 124.483L25.6189 124.634M25.8116 124.483L25.8116 124.536C25.8116 124.597 25.801 124.625 25.7956 124.636L25.7956 124.636L25.7945 124.638C25.7876 124.651 25.7826 124.654 25.7784 124.656L25.7784 124.656L25.775 124.658C25.765 124.664 25.7457 124.671 25.7092 124.671C25.674 124.671 25.6531 124.664 25.64 124.657L25.64 124.657L25.6389 124.656C25.6337 124.654 25.6271 124.649 25.6189 124.634M25.8116 124.483L26.0614 124.483L26.0614 124.536C26.0614 124.623 26.0465 124.695 26.0168 124.752C25.9878 124.808 25.9467 124.85 25.8936 124.878C25.8411 124.906 25.7796 124.92 25.7092 124.92C25.6394 124.92 25.5776 124.906 25.5238 124.878C25.4706 124.85 25.4288 124.808 25.3984 124.752M25.6189 124.634C25.6189 124.634 25.619 124.634 25.6191 124.635L25.3984 124.752M25.6189 124.634C25.6187 124.634 25.6186 124.634 25.6185 124.634L25.3984 124.752M25.6189 124.634L25.3984 124.752M24.9263 132.331L24.9263 131.596L24.9332 131.596L24.9332 132.254L24.9332 132.434L24.9263 132.434L24.9263 132.331ZM25.8026 132.254L25.8026 131.596L25.8085 131.596L25.8085 132.327L25.8085 132.434L25.8026 132.434L25.8026 132.254ZM25.6689 133.437L25.6689 133.382L25.8116 133.382L25.8116 133.435C25.8116 133.499 25.8018 133.532 25.7954 133.546L25.7953 133.546L25.7939 133.55C25.7912 133.556 25.7891 133.559 25.7882 133.56L25.787 133.561C25.7856 133.562 25.7724 133.569 25.7351 133.569C25.7169 133.569 25.705 133.567 25.6979 133.566C25.6944 133.565 25.6921 133.564 25.6908 133.563L25.6894 133.563L25.6891 133.563C25.6883 133.561 25.6868 133.559 25.6851 133.554C25.6781 133.538 25.6689 133.502 25.6689 133.437ZM25.6479 126.872L25.6479 126.872L25.6466 126.872C25.5839 126.899 25.4938 126.919 25.3674 126.919C25.241 126.919 25.1509 126.899 25.0881 126.872L25.0868 126.872C25.0216 126.844 24.9851 126.81 24.9628 126.776C24.9397 126.741 24.9242 126.695 24.9242 126.63C24.9242 126.564 24.9397 126.518 24.9628 126.483C24.9852 126.449 25.0221 126.415 25.0875 126.387C25.1506 126.36 25.241 126.341 25.3674 126.341C25.4937 126.341 25.5842 126.36 25.6473 126.387C25.7127 126.415 25.7495 126.449 25.7719 126.483C25.7951 126.518 25.8105 126.564 25.8105 126.63C25.8105 126.695 25.7951 126.741 25.7719 126.776C25.7497 126.81 25.7131 126.844 25.6479 126.872Z" fill="white" stroke="black" stroke-width="0.499547"/>
<mask id="path-47-outside-1_1036_108" maskUnits="userSpaceOnUse" x="23.457" y="170.189" width="4" height="18" fill="black">
<rect fill="white" x="23.457" y="170.189" width="4" height="18"/>
<path d="M24.3067 171.67L24.3067 171.189L26.428 171.922L26.428 172.5L24.3067 173.231L24.3067 172.75L25.9433 172.219L25.9433 172.202L24.3067 171.67ZM25.1405 171.64L25.1405 172.775L24.7904 172.775L24.7904 171.64L25.1405 171.64Z"/>
<path d="M26.428 175.261L24.3067 175.261L24.3067 174.873L25.6419 173.95L25.6419 173.935L24.3067 173.935L24.3067 173.486L26.428 173.486L26.428 173.88L25.0939 174.795L25.0939 174.814L26.428 174.814L26.428 175.261Z"/>
<path d="M24.3067 175.997L24.3067 175.516L26.428 176.248L26.428 176.826L24.3067 177.558L24.3067 177.077L25.9433 176.546L25.9433 176.529L24.3067 175.997ZM25.1405 175.967L25.1405 177.102L24.7904 177.102L24.7904 175.967L25.1405 175.967Z"/>
<path d="M24.3067 177.813L26.428 177.813L26.428 178.262L24.6765 178.262L24.6765 179.171L24.3067 179.171L24.3067 177.813Z"/>
<path d="M25.3674 181.335C25.136 181.335 24.9392 181.291 24.777 181.203C24.6147 181.116 24.4907 180.997 24.4051 180.847C24.3202 180.697 24.2777 180.529 24.2777 180.341C24.2777 180.153 24.3205 179.984 24.4062 179.834C24.4918 179.684 24.6157 179.566 24.778 179.479C24.9403 179.392 25.1367 179.348 25.3674 179.348C25.5987 179.348 25.7955 179.392 25.9578 179.479C26.1201 179.566 26.2437 179.684 26.3286 179.834C26.4142 179.984 26.457 180.153 26.457 180.341C26.457 180.529 26.4142 180.697 26.3286 180.847C26.2437 180.997 26.1201 181.116 25.9578 181.203C25.7955 181.291 25.5987 181.335 25.3674 181.335ZM25.3674 180.88C25.5172 180.88 25.6436 180.858 25.7465 180.813C25.8494 180.768 25.9274 180.706 25.9806 180.625C26.0337 180.544 26.0603 180.45 26.0603 180.341C26.0603 180.233 26.0337 180.138 25.9806 180.058C25.9274 179.977 25.8494 179.914 25.7465 179.869C25.6436 179.825 25.5172 179.803 25.3674 179.803C25.2175 179.803 25.0912 179.825 24.9883 179.869C24.8854 179.914 24.8073 179.977 24.7542 180.058C24.701 180.138 24.6744 180.233 24.6744 180.341C24.6744 180.45 24.701 180.544 24.7542 180.625C24.8073 180.706 24.8854 180.768 24.9883 180.813C25.0912 180.858 25.2175 180.88 25.3674 180.88Z"/>
<path d="M25.7423 183.074C25.7927 183.059 25.8373 183.039 25.8759 183.012C25.9153 182.986 25.9485 182.954 25.9754 182.916C26.003 182.879 26.0241 182.836 26.0386 182.788C26.0531 182.74 26.0603 182.687 26.0603 182.629C26.0603 182.521 26.0334 182.425 25.9795 182.343C25.9257 182.262 25.8473 182.198 25.7444 182.153C25.6422 182.107 25.5172 182.084 25.3694 182.084C25.2217 182.084 25.096 182.107 24.9924 182.152C24.8888 182.197 24.8098 182.26 24.7552 182.342C24.7014 182.424 24.6744 182.521 24.6744 182.633C24.6744 182.735 24.6924 182.822 24.7283 182.893C24.7649 182.966 24.8163 183.021 24.8826 183.059C24.9489 183.098 25.0273 183.117 25.1177 183.117L25.1043 183.208L25.1043 182.661L25.4419 182.661L25.4419 183.549L25.1747 183.549C24.9883 183.549 24.8281 183.51 24.6941 183.431C24.5608 183.352 24.4579 183.244 24.3854 183.106C24.3136 182.968 24.2777 182.809 24.2777 182.631C24.2777 182.432 24.3216 182.258 24.4093 182.107C24.4976 181.957 24.623 181.839 24.7853 181.755C24.9482 181.671 25.1416 181.63 25.3653 181.63C25.5372 181.63 25.6905 181.655 25.8252 181.704C25.9605 181.755 26.0752 181.825 26.1691 181.916C26.263 182.006 26.3345 182.111 26.3835 182.231C26.4325 182.352 26.457 182.482 26.457 182.622C26.457 182.742 26.4394 182.854 26.4042 182.958C26.3697 183.061 26.3207 183.153 26.2571 183.233C26.1936 183.314 26.118 183.38 26.0303 183.431C25.9433 183.482 25.8473 183.515 25.7423 183.529L25.7423 183.074Z"/>
<path d="M26.428 185.009L24.3067 185.009L24.3067 184.561L26.428 184.561L26.428 185.009Z"/>
<path d="M26.428 187.153L24.3067 187.153L24.3067 186.765L25.6419 185.843L25.6419 185.827L24.3067 185.827L24.3067 185.378L26.428 185.378L26.428 185.772L25.0939 186.688L25.0939 186.706L26.428 186.706L26.428 187.153Z"/>
</mask>
<path d="M24.3067 171.67L24.3067 171.189L26.428 171.922L26.428 172.5L24.3067 173.231L24.3067 172.75L25.9433 172.219L25.9433 172.202L24.3067 171.67ZM25.1405 171.64L25.1405 172.775L24.7904 172.775L24.7904 171.64L25.1405 171.64Z" fill="white"/>
<path d="M26.428 175.261L24.3067 175.261L24.3067 174.873L25.6419 173.95L25.6419 173.935L24.3067 173.935L24.3067 173.486L26.428 173.486L26.428 173.88L25.0939 174.795L25.0939 174.814L26.428 174.814L26.428 175.261Z" fill="white"/>
<path d="M24.3067 175.997L24.3067 175.516L26.428 176.248L26.428 176.826L24.3067 177.558L24.3067 177.077L25.9433 176.546L25.9433 176.529L24.3067 175.997ZM25.1405 175.967L25.1405 177.102L24.7904 177.102L24.7904 175.967L25.1405 175.967Z" fill="white"/>
<path d="M24.3067 177.813L26.428 177.813L26.428 178.262L24.6765 178.262L24.6765 179.171L24.3067 179.171L24.3067 177.813Z" fill="white"/>
<path d="M25.3674 181.335C25.136 181.335 24.9392 181.291 24.777 181.203C24.6147 181.116 24.4907 180.997 24.4051 180.847C24.3202 180.697 24.2777 180.529 24.2777 180.341C24.2777 180.153 24.3205 179.984 24.4062 179.834C24.4918 179.684 24.6157 179.566 24.778 179.479C24.9403 179.392 25.1367 179.348 25.3674 179.348C25.5987 179.348 25.7955 179.392 25.9578 179.479C26.1201 179.566 26.2437 179.684 26.3286 179.834C26.4142 179.984 26.457 180.153 26.457 180.341C26.457 180.529 26.4142 180.697 26.3286 180.847C26.2437 180.997 26.1201 181.116 25.9578 181.203C25.7955 181.291 25.5987 181.335 25.3674 181.335ZM25.3674 180.88C25.5172 180.88 25.6436 180.858 25.7465 180.813C25.8494 180.768 25.9274 180.706 25.9806 180.625C26.0337 180.544 26.0603 180.45 26.0603 180.341C26.0603 180.233 26.0337 180.138 25.9806 180.058C25.9274 179.977 25.8494 179.914 25.7465 179.869C25.6436 179.825 25.5172 179.803 25.3674 179.803C25.2175 179.803 25.0912 179.825 24.9883 179.869C24.8854 179.914 24.8073 179.977 24.7542 180.058C24.701 180.138 24.6744 180.233 24.6744 180.341C24.6744 180.45 24.701 180.544 24.7542 180.625C24.8073 180.706 24.8854 180.768 24.9883 180.813C25.0912 180.858 25.2175 180.88 25.3674 180.88Z" fill="white"/>
<path d="M25.7423 183.074C25.7927 183.059 25.8373 183.039 25.8759 183.012C25.9153 182.986 25.9485 182.954 25.9754 182.916C26.003 182.879 26.0241 182.836 26.0386 182.788C26.0531 182.74 26.0603 182.687 26.0603 182.629C26.0603 182.521 26.0334 182.425 25.9795 182.343C25.9257 182.262 25.8473 182.198 25.7444 182.153C25.6422 182.107 25.5172 182.084 25.3694 182.084C25.2217 182.084 25.096 182.107 24.9924 182.152C24.8888 182.197 24.8098 182.26 24.7552 182.342C24.7014 182.424 24.6744 182.521 24.6744 182.633C24.6744 182.735 24.6924 182.822 24.7283 182.893C24.7649 182.966 24.8163 183.021 24.8826 183.059C24.9489 183.098 25.0273 183.117 25.1177 183.117L25.1043 183.208L25.1043 182.661L25.4419 182.661L25.4419 183.549L25.1747 183.549C24.9883 183.549 24.8281 183.51 24.6941 183.431C24.5608 183.352 24.4579 183.244 24.3854 183.106C24.3136 182.968 24.2777 182.809 24.2777 182.631C24.2777 182.432 24.3216 182.258 24.4093 182.107C24.4976 181.957 24.623 181.839 24.7853 181.755C24.9482 181.671 25.1416 181.63 25.3653 181.63C25.5372 181.63 25.6905 181.655 25.8252 181.704C25.9605 181.755 26.0752 181.825 26.1691 181.916C26.263 182.006 26.3345 182.111 26.3835 182.231C26.4325 182.352 26.457 182.482 26.457 182.622C26.457 182.742 26.4394 182.854 26.4042 182.958C26.3697 183.061 26.3207 183.153 26.2571 183.233C26.1936 183.314 26.118 183.38 26.0303 183.431C25.9433 183.482 25.8473 183.515 25.7423 183.529L25.7423 183.074Z" fill="white"/>
<path d="M26.428 185.009L24.3067 185.009L24.3067 184.561L26.428 184.561L26.428 185.009Z" fill="white"/>
<path d="M26.428 187.153L24.3067 187.153L24.3067 186.765L25.6419 185.843L25.6419 185.827L24.3067 185.827L24.3067 185.378L26.428 185.378L26.428 185.772L25.0939 186.688L25.0939 186.706L26.428 186.706L26.428 187.153Z" fill="white"/>
<path d="M24.3067 171.67L24.3067 171.189L26.428 171.922L26.428 172.5L24.3067 173.231L24.3067 172.75L25.9433 172.219L25.9433 172.202L24.3067 171.67ZM25.1405 171.64L25.1405 172.775L24.7904 172.775L24.7904 171.64L25.1405 171.64Z" stroke="black" stroke-width="0.999094" mask="url(#path-47-outside-1_1036_108)"/>
<path d="M26.428 175.261L24.3067 175.261L24.3067 174.873L25.6419 173.95L25.6419 173.935L24.3067 173.935L24.3067 173.486L26.428 173.486L26.428 173.88L25.0939 174.795L25.0939 174.814L26.428 174.814L26.428 175.261Z" stroke="black" stroke-width="0.999094" mask="url(#path-47-outside-1_1036_108)"/>
<path d="M24.3067 175.997L24.3067 175.516L26.428 176.248L26.428 176.826L24.3067 177.558L24.3067 177.077L25.9433 176.546L25.9433 176.529L24.3067 175.997ZM25.1405 175.967L25.1405 177.102L24.7904 177.102L24.7904 175.967L25.1405 175.967Z" stroke="black" stroke-width="0.999094" mask="url(#path-47-outside-1_1036_108)"/>
<path d="M24.3067 177.813L26.428 177.813L26.428 178.262L24.6765 178.262L24.6765 179.171L24.3067 179.171L24.3067 177.813Z" stroke="black" stroke-width="0.999094" mask="url(#path-47-outside-1_1036_108)"/>
<path d="M25.3674 181.335C25.136 181.335 24.9392 181.291 24.777 181.203C24.6147 181.116 24.4907 180.997 24.4051 180.847C24.3202 180.697 24.2777 180.529 24.2777 180.341C24.2777 180.153 24.3205 179.984 24.4062 179.834C24.4918 179.684 24.6157 179.566 24.778 179.479C24.9403 179.392 25.1367 179.348 25.3674 179.348C25.5987 179.348 25.7955 179.392 25.9578 179.479C26.1201 179.566 26.2437 179.684 26.3286 179.834C26.4142 179.984 26.457 180.153 26.457 180.341C26.457 180.529 26.4142 180.697 26.3286 180.847C26.2437 180.997 26.1201 181.116 25.9578 181.203C25.7955 181.291 25.5987 181.335 25.3674 181.335ZM25.3674 180.88C25.5172 180.88 25.6436 180.858 25.7465 180.813C25.8494 180.768 25.9274 180.706 25.9806 180.625C26.0337 180.544 26.0603 180.45 26.0603 180.341C26.0603 180.233 26.0337 180.138 25.9806 180.058C25.9274 179.977 25.8494 179.914 25.7465 179.869C25.6436 179.825 25.5172 179.803 25.3674 179.803C25.2175 179.803 25.0912 179.825 24.9883 179.869C24.8854 179.914 24.8073 179.977 24.7542 180.058C24.701 180.138 24.6744 180.233 24.6744 180.341C24.6744 180.45 24.701 180.544 24.7542 180.625C24.8073 180.706 24.8854 180.768 24.9883 180.813C25.0912 180.858 25.2175 180.88 25.3674 180.88Z" stroke="black" stroke-width="0.999094" mask="url(#path-47-outside-1_1036_108)"/>
<path d="M25.7423 183.074C25.7927 183.059 25.8373 183.039 25.8759 183.012C25.9153 182.986 25.9485 182.954 25.9754 182.916C26.003 182.879 26.0241 182.836 26.0386 182.788C26.0531 182.74 26.0603 182.687 26.0603 182.629C26.0603 182.521 26.0334 182.425 25.9795 182.343C25.9257 182.262 25.8473 182.198 25.7444 182.153C25.6422 182.107 25.5172 182.084 25.3694 182.084C25.2217 182.084 25.096 182.107 24.9924 182.152C24.8888 182.197 24.8098 182.26 24.7552 182.342C24.7014 182.424 24.6744 182.521 24.6744 182.633C24.6744 182.735 24.6924 182.822 24.7283 182.893C24.7649 182.966 24.8163 183.021 24.8826 183.059C24.9489 183.098 25.0273 183.117 25.1177 183.117L25.1043 183.208L25.1043 182.661L25.4419 182.661L25.4419 183.549L25.1747 183.549C24.9883 183.549 24.8281 183.51 24.6941 183.431C24.5608 183.352 24.4579 183.244 24.3854 183.106C24.3136 182.968 24.2777 182.809 24.2777 182.631C24.2777 182.432 24.3216 182.258 24.4093 182.107C24.4976 181.957 24.623 181.839 24.7853 181.755C24.9482 181.671 25.1416 181.63 25.3653 181.63C25.5372 181.63 25.6905 181.655 25.8252 181.704C25.9605 181.755 26.0752 181.825 26.1691 181.916C26.263 182.006 26.3345 182.111 26.3835 182.231C26.4325 182.352 26.457 182.482 26.457 182.622C26.457 182.742 26.4394 182.854 26.4042 182.958C26.3697 183.061 26.3207 183.153 26.2571 183.233C26.1936 183.314 26.118 183.38 26.0303 183.431C25.9433 183.482 25.8473 183.515 25.7423 183.529L25.7423 183.074Z" stroke="black" stroke-width="0.999094" mask="url(#path-47-outside-1_1036_108)"/>
<path d="M26.428 185.009L24.3067 185.009L24.3067 184.561L26.428 184.561L26.428 185.009Z" stroke="black" stroke-width="0.999094" mask="url(#path-47-outside-1_1036_108)"/>
<path d="M26.428 187.153L24.3067 187.153L24.3067 186.765L25.6419 185.843L25.6419 185.827L24.3067 185.827L24.3067 185.378L26.428 185.378L26.428 185.772L25.0939 186.688L25.0939 186.706L26.428 186.706L26.428 187.153Z" stroke="black" stroke-width="0.999094" mask="url(#path-47-outside-1_1036_108)"/>
<path d="M15.7158 23.8427L15.7158 23.593L15.466 23.593L13.0115 23.593L13.0115 9.12244L15.466 9.12244L42.7019 9.12244L43.9008 9.12244L43.9008 23.593L42.7019 23.593L42.4521 23.593L42.4521 23.8427L42.4521 48.6075L15.7158 48.6075L15.7158 23.8427Z" fill="#010F0F" stroke="black" stroke-width="0.499547"/>
<path d="M81.1408 26.699L78.3963 26.699L78.3963 24.2042L81.1408 24.2042L81.3906 24.2042L81.3906 23.9545L81.3906 0.249767L111.533 0.249766L111.533 23.9545L111.533 24.2042L111.783 24.2042L114.527 24.2042L114.527 26.699L111.783 26.699L111.533 26.699L111.533 26.9488L111.533 41.0717L81.3906 41.0717L81.3906 26.9488L81.3906 26.699L81.1408 26.699Z" fill="#B3B3B3" stroke="black" stroke-width="0.499547"/>
<path d="M81.3377 6.55653L81.3377 0.250194L111.586 0.250192L111.586 6.55653L81.3377 6.55653Z" fill="#999999" stroke="black" stroke-width="0.499547"/>
<path d="M47.6482 46.349L47.6482 38.521L61.9758 38.521L61.9758 46.349L47.6482 46.349Z" fill="#333333" stroke="black" stroke-width="0.499547"/>
<path d="M48.6638 49.0915L48.6638 46.849L50.297 46.849L50.297 49.0915L48.6638 49.0915Z" fill="#D9D9D9" stroke="black" stroke-width="0.499547"/>
<path d="M59.3279 49.0915L59.3279 46.849L60.961 46.849L60.961 49.0915L59.3279 49.0915Z" fill="#D9D9D9" stroke="black" stroke-width="0.499547"/>
<path d="M53.9451 49.0915L53.9451 46.849L55.6798 46.849L55.6798 49.0915L53.9451 49.0915Z" fill="#D9D9D9" stroke="black" stroke-width="0.499547"/>
<path d="M51.406 38.0223L51.406 35.8814L58.32 35.8814L58.32 38.0223L51.406 38.0223Z" fill="#D9D9D9" stroke="black" stroke-width="0.499547"/>
<path d="M97.4631 111.197L92.9798 111.197L92.9798 101.245L97.4631 101.245L97.4631 111.197Z" fill="#D9D9D9" stroke="black" stroke-width="0.499547"/>
<path d="M104.633 111.197L100.15 111.197L100.15 101.245L104.633 101.245L104.633 111.197Z" fill="#D9D9D9" stroke="black" stroke-width="0.499547"/>
<path d="M104.633 178.163L100.15 178.163L100.15 168.21L104.633 168.21L104.633 178.163Z" fill="#D9D9D9" stroke="black" stroke-width="0.499547"/>
<path d="M115.572 111.197L111.089 111.197L111.089 101.245L115.572 101.245L115.572 111.197Z" fill="#D9D9D9" stroke="black" stroke-width="0.499547"/>
<rect x="66.9724" y="202.714" width="12.5046" height="4.84793" transform="rotate(-90 66.9724 202.714)" fill="#5B5B5C" stroke="black" stroke-width="0.499547"/>
<path d="M68.0662 200.891L68.0662 198.231L70.7265 198.231L70.7265 200.891L68.0662 200.891Z" fill="#878368" stroke="black" stroke-width="0.499547"/>
<path d="M68.0662 194.694L68.0662 192.034L70.7265 192.034L70.7265 194.694L68.0662 194.694Z" fill="#878368" stroke="black" stroke-width="0.499547"/>
<rect x="112.668" y="71.8329" width="12.5046" height="4.84793" fill="#5B5B5C" stroke="black" stroke-width="0.499547"/>
<path d="M114.49 72.9262L117.15 72.9262L117.15 75.5865L114.49 75.5865L114.49 72.9262Z" fill="#878368" stroke="black" stroke-width="0.499547"/>
<path d="M120.687 72.9262L123.348 72.9262L123.348 75.5865L120.687 75.5865L120.687 72.9262Z" fill="#878368" stroke="black" stroke-width="0.499547"/>
<rect x="73.5349" y="202.714" width="12.5046" height="4.84793" transform="rotate(-90 73.5349 202.714)" fill="#5B5B5C" stroke="black" stroke-width="0.499547"/>
<path d="M74.6287 200.891L74.6287 198.231L77.289 198.231L77.289 200.891L74.6287 200.891Z" fill="#878368" stroke="black" stroke-width="0.499547"/>
<path d="M74.6287 194.694L74.6287 192.034L77.289 192.034L77.289 194.694L74.6287 194.694Z" fill="#878368" stroke="black" stroke-width="0.499547"/>
<rect x="112.668" y="78.3976" width="12.5046" height="4.84793" fill="#5B5B5C" stroke="black" stroke-width="0.499547"/>
<path d="M114.49 79.4917L117.15 79.4917L117.15 82.1521L114.49 82.1521L114.49 79.4917Z" fill="#878368" stroke="black" stroke-width="0.499547"/>
<path d="M120.687 79.4917L123.348 79.4917L123.348 82.1521L120.687 82.1521L120.687 79.4917Z" fill="#878368" stroke="black" stroke-width="0.499547"/>
<rect x="80.0974" y="202.711" width="12.5046" height="4.84793" transform="rotate(-90 80.0974 202.711)" fill="#5B5B5C" stroke="black" stroke-width="0.499547"/>
<path d="M81.1912 200.888L81.1912 198.227L83.8515 198.227L83.8515 200.888L81.1912 200.888Z" fill="#878368" stroke="black" stroke-width="0.499547"/>
<path d="M81.1912 194.691L81.1912 192.03L83.8515 192.03L83.8515 194.691L81.1912 194.691Z" fill="#878368" stroke="black" stroke-width="0.499547"/>
<rect x="112.668" y="84.9587" width="12.5046" height="4.84793" fill="#5B5B5C" stroke="black" stroke-width="0.499547"/>
<path d="M114.49 86.053L117.15 86.053L117.15 88.7134L114.49 88.7134L114.49 86.053Z" fill="#878368" stroke="black" stroke-width="0.499547"/>
<path d="M120.687 86.053L123.348 86.053L123.348 88.7133L120.687 88.7133L120.687 86.053Z" fill="#878368" stroke="black" stroke-width="0.499547"/>
<path d="M103.232 95.8645L102.982 95.8645L102.982 96.1143L102.982 96.5139L101.48 96.5139L101.23 96.5139L101.23 96.7637L101.23 97.207L101.23 97.4568L101.48 97.4568L102.982 97.4568L102.982 97.8565L102.982 98.1062L103.041 98.1062L102.542 98.413L101.613 97.8312L101.23 97.5919L101.23 98.0429L101.23 98.5567L101.23 98.698L101.352 98.7708L101.733 99L101.352 99.2292L101.23 99.302L101.23 99.4433L101.23 99.9591L101.23 100.409L101.612 100.171L102.542 99.5908L103.471 100.158L103.851 100.39L103.851 99.9446L103.851 99.4381L103.851 99.2961L103.729 99.2234L103.354 99.0005L103.729 98.7789L103.851 98.7064L103.851 98.5639L103.851 98.1062L103.851 98.0553L103.851 97.8565L103.851 97.6088L103.851 96.1143L103.851 95.8645L103.602 95.8645L103.232 95.8645Z" fill="white" stroke="black" stroke-width="0.499547"/>
<path d="M103.502 179.896L103.719 179.772C103.828 179.963 103.881 180.175 103.881 180.403C103.881 180.63 103.828 180.841 103.72 181.032C103.612 181.222 103.457 181.372 103.261 181.479L103.602 181.479L103.852 181.479L103.852 181.729L103.852 182.122L103.852 182.254L103.743 182.328L103.046 182.807L103.602 182.807L103.852 182.807L103.852 183.057L103.852 183.503L103.852 183.753L103.602 183.753L101.481 183.753L101.231 183.753L101.231 183.503L101.231 183.116L101.231 182.985L101.339 182.91L102.038 182.427L101.481 182.427L101.231 182.427L101.231 182.177L101.231 181.729L101.231 181.479L101.481 181.479L101.821 181.479C101.626 181.372 101.47 181.222 101.362 181.032L101.362 181.032C101.254 180.841 101.202 180.63 101.202 180.403C101.202 180.175 101.254 179.963 101.363 179.772C101.474 179.578 101.633 179.428 101.834 179.32C102.04 179.209 102.28 179.16 102.541 179.16C102.803 179.16 103.043 179.209 103.25 179.32M103.502 179.896L103.25 179.32M103.502 179.896C103.588 180.045 103.631 180.215 103.631 180.403C103.631 180.59 103.588 180.759 103.502 180.909L103.25 179.32M103.502 179.896L103.72 179.772C103.61 179.579 103.45 179.428 103.25 179.32M102.82 180.645C102.758 180.673 102.668 180.692 102.541 180.692C102.415 180.692 102.325 180.673 102.262 180.645L102.262 180.645L102.261 180.645C102.195 180.617 102.159 180.583 102.137 180.55C102.113 180.514 102.098 180.469 102.098 180.403C102.098 180.337 102.113 180.292 102.137 180.257C102.159 180.223 102.196 180.189 102.261 180.16C102.324 180.133 102.415 180.114 102.541 180.114C102.668 180.114 102.758 180.133 102.821 180.16C102.886 180.189 102.923 180.223 102.946 180.257C102.969 180.292 102.984 180.337 102.984 180.403C102.984 180.469 102.969 180.514 102.946 180.55L103.154 180.687L102.946 180.55C102.923 180.583 102.887 180.617 102.822 180.645L102.822 180.645L102.82 180.645Z" fill="white" stroke="black" stroke-width="0.499547"/>
<path d="M96.3457 97.443L96.5685 97.5558C96.6476 97.3996 96.6814 97.2222 96.6814 97.0328L96.6814 96.1959L96.6814 95.9461L96.4316 95.9461L94.3103 95.9461L94.0606 95.9461L94.0606 96.1959L94.0606 96.6444L94.0606 96.8942L94.3103 96.8942L94.6776 96.8942L94.1926 97.1533L94.0606 97.2239L94.0606 97.3736L94.0606 97.5585L94.0606 97.8687L94.0606 98.0096L94.0606 98.2897L94.0606 98.5233L94.0606 98.6646L94.1817 98.7374L94.5632 98.9667L94.1817 99.1959L94.0606 99.2687L94.0606 99.41L94.0606 99.9258L94.0606 100.376L94.4426 100.138L95.3724 99.5574L96.3015 100.125L96.6814 100.356L96.6814 99.9113L96.6814 99.4048L96.6814 99.2627L96.5593 99.1901L96.1843 98.9672L96.5588 98.7455L96.6814 98.673L96.6814 98.5306L96.6814 98.022L96.6814 97.5754L96.4796 97.6994C96.5136 97.6546 96.5435 97.6061 96.5693 97.5542L96.3457 97.443ZM96.3457 97.443C96.289 97.5569 96.2086 97.6436 96.1043 97.703M96.3457 97.443C96.403 97.3297 96.4316 97.193 96.4316 97.0328L96.4316 96.4457L96.1043 97.703M96.1043 97.703C96.0007 97.7631 95.8789 97.7931 95.7387 97.7931C95.5978 97.7931 95.4766 97.7627 95.3751 97.7019C95.339 97.6802 95.3058 97.6549 95.2757 97.6261L96.1043 97.703ZM96.1043 97.703L96.2014 97.8703L96.1043 97.703ZM94.6844 97.949L95.0492 97.7498C95.1051 97.8146 95.1707 97.8704 95.2462 97.9159L95.2468 97.9163C95.3939 98.0043 95.5613 98.0429 95.7387 98.0429C95.8124 98.0429 95.8844 98.0362 95.9541 98.0222L95.3722 98.3796L94.6844 97.949ZM95.6725 96.9489L95.6725 96.8942L95.8152 96.8942L95.8152 96.9468C95.8152 97.0107 95.8054 97.0442 95.799 97.0585L95.7989 97.0585L95.7975 97.0619C95.7948 97.068 95.7927 97.0712 95.7918 97.0724L95.7906 97.0731C95.7892 97.0739 95.776 97.0814 95.7387 97.0814C95.7205 97.0814 95.7086 97.0795 95.7015 97.0778C95.698 97.0769 95.6957 97.0761 95.6944 97.0756L95.693 97.075L95.6928 97.0748C95.6919 97.0734 95.6905 97.0708 95.6887 97.0666C95.6817 97.0498 95.6725 97.0138 95.6725 96.9489Z" fill="white" stroke="black" stroke-width="0.499547"/>
<path d="M112.418 98.2558L112.168 98.2558L112.168 98.5055L112.168 99.8635L112.168 100.113L112.418 100.113L112.788 100.113L113.037 100.113L113.037 99.8635L113.037 99.2038L114.539 99.2038L114.789 99.2038L114.789 98.954L114.789 98.5055L114.789 98.2558L114.539 98.2558L112.418 98.2558Z" fill="white" stroke="black" stroke-width="0.499547"/>
<path d="M88.7263 92.2379L88.7263 76.3304L104.634 76.3304L104.634 92.2379L88.7263 92.2379Z" fill="#333333" stroke="black" stroke-width="0.499547"/>
</svg>
