<svg width="208" height="80" viewBox="0 0 208 80" fill="none" xmlns="http://www.w3.org/2000/svg">
<rect x="199.5" y="0.5" width="79" height="199" transform="rotate(90 199.5 0.5)" fill="#2B2B2B" stroke="black"/>
<rect x="207.5" y="32.5" width="15" height="9" transform="rotate(90 207.5 32.5)" fill="#5B5B5C" stroke="black"/>
<rect x="199.5" y="0.5" width="79" height="65" transform="rotate(90 199.5 0.5)" fill="#FC8D00" stroke="black"/>
<rect x="133.5" y="0.5" width="79" height="19" transform="rotate(90 133.5 0.5)" fill="#5B5B5C" stroke="black"/>
<mask id="path-5-inside-1_1036_205" fill="white">
<path fill-rule="evenodd" clip-rule="evenodd" d="M180 42.0077L180 38.0077L169.994 38.0077L169.965 28L165.965 28.0117L165.994 38.0077L156 38.0077L156 42.0077L166.006 42.0077L166.035 52.0116L170.035 51.9999L170.006 42.0077L180 42.0077Z"/>
</mask>
<path fill-rule="evenodd" clip-rule="evenodd" d="M180 42.0077L180 38.0077L169.994 38.0077L169.965 28L165.965 28.0117L165.994 38.0077L156 38.0077L156 42.0077L166.006 42.0077L166.035 52.0116L170.035 51.9999L170.006 42.0077L180 42.0077Z" fill="black"/>
<path d="M180 38.0077L181 38.0077L181 37.0077L180 37.0077L180 38.0077ZM180 42.0077L180 43.0077L181 43.0077L181 42.0077L180 42.0077ZM169.994 38.0077L168.994 38.0106L168.997 39.0077L169.994 39.0077L169.994 38.0077ZM169.965 28L170.965 27.9971L170.962 26.9971L169.962 27L169.965 28ZM165.965 28.0117L165.962 27.0117L164.962 27.0146L164.965 28.0146L165.965 28.0117ZM165.994 38.0077L165.994 39.0077L166.997 39.0077L166.994 38.0048L165.994 38.0077ZM156 38.0077L156 37.0077L155 37.0077L155 38.0077L156 38.0077ZM156 42.0077L155 42.0077L155 43.0077L156 43.0077L156 42.0077ZM166.006 42.0077L167.006 42.0048L167.003 41.0077L166.006 41.0077L166.006 42.0077ZM166.035 52.0116L165.035 52.0145L165.038 53.0145L166.038 53.0116L166.035 52.0116ZM170.035 51.9999L170.038 52.9999L171.038 52.997L171.035 51.997L170.035 51.9999ZM170.006 42.0077L170.006 41.0077L169.003 41.0077L169.006 42.0106L170.006 42.0077ZM179 38.0077L179 42.0077L181 42.0077L181 38.0077L179 38.0077ZM169.994 39.0077L180 39.0077L180 37.0077L169.994 37.0077L169.994 39.0077ZM168.965 28.0029L168.994 38.0106L170.994 38.0048L170.965 27.9971L168.965 28.0029ZM165.968 29.0117L169.968 29L169.962 27L165.962 27.0117L165.968 29.0117ZM166.994 38.0048L166.965 28.0088L164.965 28.0146L164.994 38.0106L166.994 38.0048ZM156 39.0077L165.994 39.0077L165.994 37.0077L156 37.0077L156 39.0077ZM157 42.0077L157 38.0077L155 38.0077L155 42.0077L157 42.0077ZM166.006 41.0077L156 41.0077L156 43.0077L166.006 43.0077L166.006 41.0077ZM167.035 52.0087L167.006 42.0048L165.006 42.0106L165.035 52.0145L167.035 52.0087ZM170.032 50.9999L166.032 51.0116L166.038 53.0116L170.038 52.9999L170.032 50.9999ZM169.006 42.0106L169.035 52.0028L171.035 51.997L171.006 42.0048L169.006 42.0106ZM180 41.0077L170.006 41.0077L170.006 43.0077L180 43.0077L180 41.0077Z" fill="black" mask="url(#path-5-inside-1_1036_205)"/>
<rect x="23.5" y="28.5" width="23" height="3" transform="rotate(90 23.5 28.5)" fill="white" stroke="black"/>
</svg>
