<svg width="91" height="208" viewBox="0 0 91 208" fill="none" xmlns="http://www.w3.org/2000/svg">
<path d="M16.5781 33.1318C16.5781 15.1098 31.1879 0.500008 49.21 0.500008C67.2321 0.500008 81.8419 15.1098 81.8419 33.1319V81.1667H16.5781V33.1318Z" fill="#DD4545" stroke="black"/>
<path d="M36.1309 38.2755L35.8531 38.4133V38.7234V52.3759V81.1667H28.1992V23.5851H36.2115L45.1922 29.115L46.2744 33.2437L36.1309 38.2755Z" fill="#5B5B5C" stroke="black"/>
<rect x="25.4766" y="99.2802" width="10.3736" height="108.22" fill="#5B5B5C" stroke="black"/>
<rect x="55.3945" y="99.0319" width="10.3736" height="73.4681" fill="#5B5B5C" stroke="black"/>
<path d="M54.6962 30.9293L54.9352 30.5631L54.604 30.2774L46.8452 23.5851H54.2775H71.0852V81.1667H54.5858L47.7308 67.5233V53.3688V41.6027L54.6962 30.9293Z" fill="#5B5B5C" stroke="black"/>
<rect x="1" y="82.1667" width="89" height="17.8652" fill="#E31E24" stroke="black"/>
</svg>
