<svg width="153" height="214" viewBox="0 0 153 214" fill="none" xmlns="http://www.w3.org/2000/svg">
<path d="M0 144.389L90.2303 200.641H96.9603L150.182 127.138V124.767L138.083 118.716C136.513 118.586 136.448 117.79 136.611 117.408L138.9 113.647L140.617 114.301C140.159 115.348 140.426 116.264 140.617 116.591C142.579 118.815 144.16 117.19 144.705 116.1L146.094 116.591L150.754 111.849L147.73 43.8237L39.896 0L35.563 4.82388L38.5879 72.8487L42.9209 74.7292C41.7763 77.3456 44.2289 81.2701 47.4174 79.6349C49.9681 78.3267 49.6792 77.4001 49.2159 77.1003L55.511 79.6349H51.9138L36.217 90.1002L34.7455 96.7228C33.8952 97.6386 34.3912 98.4671 34.7455 98.7669C34.1568 102.234 33.0831 105.335 32.6199 106.452C29.4315 107.924 31.3118 109.314 31.23 110.54C31.1646 111.522 27.7691 117.163 26.0795 119.861C25.8888 119.643 25.0494 119.338 23.2182 119.861C21.3869 120.384 21.8011 122.259 22.2371 123.131L0 139.811V144.389Z" fill="#FCAE04"/>
<path d="M102.732 129.505L80.6218 123.58L81.6279 119.826C82.9586 114.859 84.4943 111.353 86.2348 109.307C87.9861 107.221 90.5074 105.917 93.7988 105.393L98.3305 104.691C101.752 104.16 103.792 102.663 104.452 100.199C104.836 98.7692 104.664 97.4243 103.937 96.1649C103.209 94.9054 102.131 94.0841 100.7 93.7009C96.8068 92.6576 94.136 94.8376 92.6882 100.241L72.1273 94.7318C74.0649 87.5007 77.3145 82.0478 81.8762 78.3729C85.2444 75.6558 89.1614 73.831 93.6271 72.8984C98.0927 71.9658 102.431 72.0637 106.643 73.1922C114.112 75.1936 119.724 79.3589 123.479 85.6879C127.285 91.9879 128.208 98.7932 126.249 106.104C123.832 115.123 118.479 120.48 110.189 122.177C107.486 122.73 105.759 123.374 105.008 124.11C104.257 124.846 103.499 126.644 102.732 129.505ZM91.218 129.805C95.1117 130.848 98.0712 133.153 100.096 136.719C102.162 140.296 102.672 144.031 101.629 147.925C100.586 151.818 98.3063 154.763 94.7905 156.759C91.2854 158.716 87.5662 159.167 83.6328 158.113C79.5405 157.017 76.5147 154.801 74.5553 151.465C72.6463 148.1 72.2401 144.372 73.3366 140.28C74.4012 136.307 76.6715 133.317 80.1476 131.31C83.6342 129.263 87.3244 128.761 91.218 129.805Z" fill="#15151A"/>
</svg>
