<svg width="188" height="122" viewBox="0 0 188 122" fill="none" xmlns="http://www.w3.org/2000/svg">
<rect x="0.5" y="1.5" width="186.5" height="119" rx="59.5" fill="#832827" stroke="black"/>
<rect x="12.7305" y="9.50012" width="162.043" height="103" rx="51.5" fill="#D9D9D9" stroke="black"/>
<path fill-rule="evenodd" clip-rule="evenodd" d="M119.523 8.15909C123.477 8.15909 126.682 4.95386 126.682 1H134.182C134.182 9.09599 127.619 15.6591 119.523 15.6591H63.4261C61.9827 15.6591 60.8125 16.8293 60.8125 18.2727C60.8125 19.7162 61.9827 20.8864 63.4261 20.8864H124.523C129.858 20.8864 134.182 25.2109 134.182 30.5455C134.182 35.88 129.858 40.2045 124.523 40.2045H63.1989C61.8809 40.2045 60.8125 41.273 60.8125 42.5909C60.8125 43.9089 61.8809 44.9773 63.1989 44.9773H124.296C129.756 44.9773 134.182 49.4035 134.182 54.8636C134.182 60.3237 129.756 64.75 124.296 64.75H62.7443C61.6774 64.75 60.8125 65.6149 60.8125 66.6818C60.8125 67.7487 61.6774 68.6136 62.7443 68.6136H124.296C129.756 68.6136 134.182 73.0399 134.182 78.5C134.182 83.9601 129.756 88.3864 124.296 88.3864H63.4261C61.9827 88.3864 60.8125 89.5565 60.8125 91C60.8125 92.4435 61.9827 93.6136 63.4261 93.6136H124.296C129.756 93.6136 134.182 98.0399 134.182 103.5C134.182 108.96 129.756 113.386 124.296 113.386H68.4262C64.2212 113.386 60.8125 116.795 60.8125 121H53.3125C53.3125 112.653 60.0791 105.886 68.4262 105.886H124.296C125.614 105.886 126.682 104.818 126.682 103.5C126.682 102.182 125.614 101.114 124.296 101.114H63.4261C57.8405 101.114 53.3125 96.5856 53.3125 91C53.3125 85.4144 57.8406 80.8864 63.4261 80.8864H124.296C125.614 80.8864 126.682 79.818 126.682 78.5C126.682 77.1821 125.614 76.1136 124.296 76.1136H62.7443C57.5353 76.1136 53.3125 71.8909 53.3125 66.6818C53.3125 61.4728 57.5353 57.25 62.7443 57.25H124.296C125.614 57.25 126.682 56.1816 126.682 54.8636C126.682 53.5457 125.614 52.4773 124.296 52.4773H63.1989C57.7388 52.4773 53.3125 48.051 53.3125 42.5909C53.3125 37.1308 57.7388 32.7045 63.1989 32.7045H124.523C125.715 32.7045 126.682 31.7379 126.682 30.5455C126.682 29.353 125.715 28.3864 124.523 28.3864H63.4261C57.8405 28.3864 53.3125 23.8583 53.3125 18.2727C53.3125 12.6871 57.8406 8.15909 63.4261 8.15909H119.523Z" fill="#832827" stroke="black"/>
<path d="M38.8996 60.6665C38.8996 66.0885 34.418 70.4999 28.8697 70.4999C23.3215 70.4999 18.8398 66.0885 18.8398 60.6665C18.8398 55.2446 23.3215 50.8332 28.8697 50.8332C34.418 50.8332 38.8996 55.2446 38.8996 60.6665Z" fill="#878368" stroke="black"/>
<path d="M168.654 60.6665C168.654 66.0885 164.172 70.4999 158.624 70.4999C153.075 70.4999 148.594 66.0885 148.594 60.6665C148.594 55.2446 153.075 50.8332 158.624 50.8332C164.172 50.8332 168.654 55.2446 168.654 60.6665Z" fill="#878368" stroke="black"/>
</svg>
