<svg width="204" height="263" viewBox="0 0 204 263" fill="none" xmlns="http://www.w3.org/2000/svg">
<rect x="0.291924" y="-0.196499" width="14.5115" height="1.3547" transform="matrix(0.187159 -0.982329 0.980537 0.196334 7.83426 221.343)" fill="#FC8D00" stroke="black" stroke-width="0.5"/>
<rect x="-0.274611" y="0.219309" width="14.5251" height="1.35306" transform="matrix(-0.105334 0.994437 -0.993108 -0.117199 167.135 25.3274)" fill="#FC8D00" stroke="black" stroke-width="0.5"/>
<rect x="0.291829" y="-0.196436" width="7.43451" height="1.97293" transform="matrix(0.18684 -0.98239 0.980475 0.196645 9.00412 212.99)" fill="#E31E24" stroke="black" stroke-width="0.5"/>
<rect x="-0.274611" y="0.219309" width="7.4417" height="1.97075" transform="matrix(-0.105334 0.994437 -0.993108 -0.117199 166.654 33.7541)" fill="#8FB546" stroke="black" stroke-width="0.5"/>
<rect x="0.267044" y="-0.228268" width="13.5537" height="1.35231" transform="matrix(0.0717401 -0.997423 0.996436 0.0843512 11.4011 221.804)" fill="#FC8D00" stroke="black" stroke-width="0.5"/>
<rect x="-0.247403" y="0.249046" width="13.5692" height="1.3503" transform="matrix(0.0103794 0.999946 -0.999993 -0.00376123 163.674 25.061)" fill="#FC8D00" stroke="black" stroke-width="0.5"/>
<rect x="0.267044" y="-0.228268" width="7.44499" height="1.96974" transform="matrix(0.0717401 -0.997423 0.996436 0.0843513 11.7078 213.707)" fill="#3F518C" stroke="black" stroke-width="0.5"/>
<rect x="-0.247403" y="0.249046" width="7.45376" height="1.96707" transform="matrix(0.0103793 0.999946 -0.999993 -0.00376126 164.032 33.1637)" fill="#3F518C" stroke="black" stroke-width="0.5"/>
<rect x="0.248407" y="-0.248062" width="13.916" height="1.35041" transform="matrix(-0.00634277 -0.99998 0.99997 0.00773303 14.5664 221.636)" fill="#FC8D00" stroke="black" stroke-width="0.5"/>
<rect x="-0.227275" y="0.267292" width="13.9334" height="1.34821" transform="matrix(0.0882287 0.9961 -0.997327 0.0730668 160.61 25.3989)" fill="#FC8D00" stroke="black" stroke-width="0.5"/>
<rect x="0.248407" y="-0.248062" width="14.5502" height="1.96721" transform="matrix(-0.00634274 -0.99998 0.99997 0.00773304 14.3183 213.204)" fill="#8FB546" stroke="black" stroke-width="0.5"/>
<rect x="-0.227275" y="0.267292" width="14.5683" height="1.96428" transform="matrix(0.0882287 0.9961 -0.997327 0.0730668 161.548 33.796)" fill="#E31E24" stroke="black" stroke-width="0.5"/>
<path d="M73.4535 185.468C28.0301 186.026 18.0687 203.516 17.3224 209.882L7.83322 209.336C8.80908 195.768 25.5346 176.654 73.1883 176.069C76.2667 176.031 79.0453 175.861 81.6417 175.269C97.7085 171.604 124.417 160.649 137.531 139.221L137.88 138.649L137.886 138.64C139.871 135.398 141.755 132.321 143.374 129.141C149.247 117.604 157.892 89.0108 158.252 38.4746L167.737 38.6631C167.374 90.0485 158.606 120.219 151.857 133.478C150.068 136.992 148.005 140.36 146.062 143.533L145.662 144.187C130.614 168.776 100.896 180.556 83.9055 184.432C80.3181 185.25 76.7377 185.428 73.4535 185.468Z" fill="#2B2B2B" stroke="black"/>
</svg>
